<svg width="180" height="21" viewBox="0 0 180 21" fill="none" xmlns="http://www.w3.org/2000/svg">
  <defs>
    <filter id="glow" height="300%" width="300%" x="-100%" y="-100%">
      <feGaussianBlur in="SourceGraphic" stdDeviation="3" result="blur" />
      <feComponentTransfer result="blurred">
        <!-- slope 0.3 is the opacity of the glow effect -->
        <feFuncA type="linear" slope="0.4" />
      </feComponentTransfer>
      <feMerge>
        <feMergeNode in="blurred" />
        <feMergeNode in="SourceGraphic" />
      </feMerge>
    </filter>
  </defs>
  <g filter="url(#glow)">
    <path d="M30.2196 7.58449C29.7701 7.58449 29.3386 7.49818 28.925 7.32367C28.5115 7.14736 28.1519 6.90448 27.8463 6.59324C27.5406 6.282 27.289 5.92214 27.1092 5.51555C26.9474 5.10716 26.8574 4.67359 26.8574 4.21482C26.8574 3.74706 26.9474 3.30812 27.1092 2.90153C27.289 2.49314 27.5406 2.13509 27.8463 1.82744C28.1519 1.518 28.5115 1.27516 28.925 1.09885C29.3386 0.922544 29.7701 0.834351 30.2196 0.834351C30.6871 0.834351 31.1365 0.922544 31.5321 1.09885C31.9456 1.27516 32.3052 1.518 32.6108 1.82744C32.9165 2.13509 33.1682 2.49314 33.33 2.90153C33.5098 3.30812 33.5997 3.74706 33.5997 4.21482C33.5997 4.67359 33.5098 5.10716 33.33 5.51555C33.1682 5.92214 32.9165 6.282 32.6108 6.59324C32.3052 6.90448 31.9456 7.14736 31.5321 7.32367C31.1365 7.49818 30.6871 7.58449 30.2196 7.58449ZM30.2196 6.89903C30.5972 6.89903 30.9387 6.83072 31.2624 6.6904C31.568 6.55187 31.8558 6.35757 32.0895 6.1093C32.3412 5.86102 32.5209 5.57493 32.6647 5.25289C32.7906 4.92906 32.8626 4.58363 32.8626 4.21482C32.8626 3.85141 32.7906 3.50603 32.6647 3.1822C32.5209 2.85836 32.3412 2.57231 32.0895 2.32403C31.8558 2.07576 31.568 1.88322 31.2624 1.74469C30.9387 1.60616 30.5972 1.53782 30.2196 1.53782C29.86 1.53782 29.5184 1.60616 29.1947 1.74469C28.8891 1.88322 28.6014 2.07576 28.3497 2.32403C28.1159 2.57231 27.9182 2.85836 27.7924 3.1822C27.6485 3.50603 27.5766 3.85141 27.5766 4.21482C27.5766 4.58363 27.6485 4.92906 27.7924 5.25289C27.9182 5.57493 28.1159 5.86102 28.3497 6.1093C28.6014 6.35757 28.8891 6.55187 29.1947 6.6904C29.5184 6.83072 29.86 6.89903 30.2196 6.89903ZM29.788 5.85024H28.997V2.53987H30.5432C30.9028 2.53987 31.1725 2.6263 31.3523 2.79902C31.55 2.97353 31.64 3.18939 31.64 3.44846C31.64 3.69673 31.568 3.89103 31.4422 4.02956C31.2983 4.16988 31.1365 4.26164 30.9388 4.30662C31.1545 4.30662 31.3164 4.34438 31.4242 4.41994C31.5321 4.4937 31.586 4.62687 31.586 4.81937V5.85024H30.795V5.00104C30.795 4.8805 30.7769 4.79231 30.723 4.74014C30.669 4.68796 30.5791 4.66283 30.4533 4.66283H29.788V5.85024ZM29.788 3.24158V3.99538H30.3634C30.687 3.99538 30.8489 3.86406 30.8489 3.605C30.8489 3.36212 30.6691 3.24158 30.3455 3.24158H29.788Z" fill="#E6E6E6"/> 
<path d="M32.4686 10.9571H23.4688V19.957H32.4686V10.9571Z" fill="#E6E6E6"/>
<path fill-rule="evenodd" clip-rule="evenodd" d="M23.4689 10.9567L9.96889 10.9572V19.9572H0.96875V10.9572L9.96889 1.95727L23.4689 1.95679V10.9567Z" fill="#E6E6E6"/>
<path d="M49.5062 20.0169H46.0283V2H55.9354C57.0948 2 58.1487 2.21389 59.0973 2.64146C59.9932 3.06903 60.6782 3.6516 61.2052 4.38916C61.7322 5.12671 61.9957 5.96581 61.9957 6.91715C61.9957 7.68677 61.8377 8.37093 61.5742 8.97488C61.3107 9.57882 60.9418 10.0811 60.5202 10.4713C60.0987 10.8668 59.6241 11.1447 59.1498 11.3158C60.0983 11.3158 60.7308 11.5295 61.0997 11.9624C61.4686 12.3953 61.6267 13.0634 61.6267 13.9667V20.0169H58.1488V13.2025H49.5062V20.0169ZM49.5062 5.14283V10.0597H55.5664C56.4096 10.0597 57.0421 9.84609 57.5164 9.41852C57.9906 8.99095 58.2013 8.37635 58.2013 7.58001C58.2013 6.85848 57.9906 6.2759 57.5164 5.82161C57.0421 5.36731 56.4096 5.14283 55.5664 5.14283H49.5062Z" fill="#E6E6E6"/>
<path d="M73.2219 20.268C70.5343 20.268 68.479 19.6054 67.1616 18.2799C65.8441 16.9545 65.1592 15.1639 65.1592 12.9084V2H68.637V12.7106C68.637 14.1537 69.006 15.2494 69.7965 16.003C70.5343 16.7566 71.5885 17.1361 73.0114 17.1361H73.4329C74.8557 17.1361 75.9625 16.7566 76.7002 16.003C77.438 15.2494 77.8067 14.1537 77.8067 12.7106V2H81.2845V12.9084C81.2845 15.1639 80.5996 16.9545 79.2821 18.2799C77.912 19.6054 75.9094 20.268 73.2219 20.268Z" fill="#E6E6E6"/>
<path d="M98.5151 15.2386V2.00003H102.046V20.017H97.7247L88.5025 6.54843V20.017H84.9717V2.00003H89.451L98.5151 15.2386Z" fill="#E6E6E6"/>
<path d="M109.415 20.0169H105.884V2H115.791C117.003 2 118.057 2.21389 118.953 2.64146C119.849 3.06903 120.587 3.6516 121.114 4.38916C121.641 5.12671 121.851 5.96581 121.851 6.91715C121.851 7.68677 121.746 8.37093 121.483 8.97488C121.166 9.57882 120.85 10.0811 120.429 10.4713C120.007 10.8668 119.533 11.1447 119.058 11.3158C119.954 11.3158 120.587 11.5295 120.956 11.9624C121.325 12.3953 121.535 13.0634 121.535 13.9667V20.0169H118.004V13.2025H109.415V20.0169ZM109.415 5.14283V10.0597H115.422C116.266 10.0597 116.95 9.84609 117.372 9.41852C117.846 8.99095 118.11 8.37635 118.11 7.58001C118.11 6.85848 117.846 6.2759 117.372 5.82161C116.95 5.36731 116.266 5.14283 115.422 5.14283H109.415Z" fill="#E6E6E6"/>
<path d="M128.751 12.3205V16.8848H141.187V20.0169H125.22V2H140.924V5.14283H128.751V9.17791H139.448V12.3205H128.751Z" fill="#E6E6E6"/>
<path d="M162.239 20.0169H158.445L156.548 15.8052H147.378L145.481 20.0169H141.739L150.065 2H153.965L162.239 20.0169ZM151.963 5.68251L148.801 12.6626H155.125L151.963 5.68251Z" fill="#E6E6E6"/>
<path d="M179.303 20.0169H163.862V2H167.393V16.8848H179.303V20.0169Z" fill="#E6E6E6"/>
  </g>
</svg>