<svg width="95" height="92" viewBox="0 0 95 92" fill="none" xmlns="http://www.w3.org/2000/svg">
<rect x="32.5" y="32.5" width="25" height="25" fill="#E51A2F" fill-opacity="0.1"/>
<rect x="32.5" y="32.5" width="25" height="25" stroke="#E51A2F"/>
<g opacity="0.6" filter="url(#filter0_f_190_7116)">
<ellipse cx="45" cy="45" rx="18" ry="15" fill="#E51A2F"/>
</g>
<path fill-rule="evenodd" clip-rule="evenodd" d="M52 46.6153C51.8 47.5717 50.9095 50.025 48.0716 51.3539L46.9327 50.0842L45.0108 52C43.9166 51.9854 42.8405 51.7203 41.8668 51.2253C40.893 50.7304 40.0479 50.019 39.3976 49.1468C39.6021 49.2098 39.8132 49.2491 40.0268 49.2639C40.3414 49.2695 40.6824 49.1553 40.6824 48.6291V43.4623C40.6871 43.3294 40.6603 43.1972 40.6041 43.0763C40.5478 42.9555 40.4638 42.8495 40.3587 42.7667C40.2537 42.6839 40.1304 42.6267 39.999 42.5996C39.8676 42.5726 39.7315 42.5764 39.6019 42.6109C38.7121 42.8127 38.0003 45.0141 38.0003 45.0141C37.9904 43.9975 38.2041 42.991 38.6265 42.0645C39.0488 41.138 39.6697 40.3138 40.4461 39.6491C41.7714 38.5361 43.0662 38.1509 44.0499 38C43.0783 38.5488 42.5316 39.4446 42.5316 40.1965C42.5316 41.402 43.2662 41.2595 43.484 41.0817V48.0591C43.5208 48.1468 43.5687 48.2295 43.6264 48.3053C43.7237 48.4387 43.8518 48.5469 44.0001 48.6211C44.1483 48.6952 44.3124 48.733 44.4784 48.7314C45.2144 48.7314 46.1689 47.899 46.1689 47.899V42.2491C46.1689 41.6742 45.7319 40.9794 45.2941 40.7424C45.2941 40.7424 46.1042 40.6014 46.7305 41.0747C46.848 40.9321 46.973 40.7958 47.105 40.6663C48.5613 39.2485 49.9358 38.8464 51.0804 38.6447C51.0804 38.6447 48.9969 40.267 48.9969 42.4395C48.9969 44.0569 49.0389 48.0006 49.0389 48.0006C49.8141 48.7384 50.9622 47.6733 52 46.6153Z" fill="#E51A2F"/>
<defs>
<filter id="filter0_f_190_7116" x="-5" y="-2" width="100" height="94" filterUnits="userSpaceOnUse" color-interpolation-filters="sRGB">
<feFlood flood-opacity="0" result="BackgroundImageFix"/>
<feBlend mode="normal" in="SourceGraphic" in2="BackgroundImageFix" result="shape"/>
<feGaussianBlur stdDeviation="16" result="effect1_foregroundBlur_190_7116"/>
</filter>
</defs>
</svg>
